<svg xmlns="http://www.w3.org/2000/svg" viewBox="0 0 453.91 117.53"><defs><style>.cls-1{isolation:isolate;}.cls-2,.cls-3,.cls-4{fill:#fff;}.cls-2,.cls-3{fill-rule:evenodd;}.cls-3{mix-blend-mode:screen;}</style></defs><g class="cls-1"><g id="Layer_2" data-name="Layer 2"><g id="Layer_1-2" data-name="Layer 1"><path class="cls-2" d="M453.91,49.93C453.81,20.75,414.5,0,414.5,0s-39.31,20.75-39.41,49.93h0C375.17,26,414.5,9,414.5,9s32.23,17,32.31,40.94V91.12l-32.32,18.54L382.18,91.12V69.57l32.31,18.1L433.4,77v6.64L414.49,94.75l-26-14.94v7.86l26,14.93,26-14.93V64.86l-26,15L375.09,57V94.75l39.4,22.78,39.42-22.78Z"/><path class="cls-3" d="M427.1,51.88a12.6,12.6,0,1,0-12.6,12.56A12.58,12.58,0,0,0,427.1,51.88Z"/><path class="cls-2" d="M419.93,39.14s8.65-1.76,5.86,5.92c-3,8.19-14.66,12.71-14.66,12.71S420.8,53,423.88,45C426,39.54,419.93,39.14,419.93,39.14Z"/><path class="cls-2" d="M425.54,45.17s7.38-1.29,4.82,5.14c-2.72,6.85-12.73,10.39-12.73,10.39s8.32-3.83,11.12-10.5C430.66,45.65,425.54,45.17,425.54,45.17Z"/><path class="cls-2" d="M401.12,54.18s-5,8.11,3.83,8.12c9.41,0,18.35-10.15,18.35-10.15s-8.48,8-17.72,8.19C399.28,60.46,401.12,54.18,401.12,54.18Z"/><path class="cls-4" d="M52.29,60.73a4.29,4.29,0,0,0,1.2-3,4.25,4.25,0,0,0-1.2-3,4.18,4.18,0,0,0-6,0,4.45,4.45,0,0,0,0,6.08,4.18,4.18,0,0,0,6,0Z"/><path class="cls-4" d="M42.32,60.73a4.2,4.2,0,0,0,1.23-3,4.15,4.15,0,0,0-1.23-3,4.13,4.13,0,0,0-5.94,0,4.15,4.15,0,0,0-1.23,3,4.2,4.2,0,0,0,1.23,3,4,4,0,0,0,3,1.26A3.94,3.94,0,0,0,42.32,60.73Z"/><path class="cls-4" d="M102.52,19a4.39,4.39,0,0,0,4.4-4.43,4.32,4.32,0,0,0-4.4-4.36,4.37,4.37,0,0,0-4.36,4.36,4.28,4.28,0,0,0,1.28,3.14A4.13,4.13,0,0,0,102.52,19Z"/><path class="cls-4" d="M120.29,49.3h41.89V9.9h-8.89V42.37h-9.58q-.9-13-11.52-18l12.63-7.5V8.06l-22.7,14.25v6.41q12.36,2.54,13,13.65H117.84a29.34,29.34,0,0,0-3.88.27c1.69-1.56,2.54-4,2.54-7.42q0-6.36-3.52-9.69t-9.85-3.28a14.62,14.62,0,0,0-10.51,3.91A13.42,13.42,0,0,0,88.5,36.34a10,10,0,0,0,1.82,6.3,16.66,16.66,0,0,0-3.08-.27H51V23h-8.9V42.37H30.62V9.9H21.8V45q0,10.18-6.33,10.18-6.63,0-6.63-10a36.1,36.1,0,0,1,1.61-10.38L1.28,36.45A37.4,37.4,0,0,0,0,46.05q0,16.11,14.82,16.1,13.42,0,15.42-12.85h90.05Zm-14.08-8.62a4.76,4.76,0,0,1-3.82,1.69c-3.39,0-5.08-2.28-5.08-6.82A6.76,6.76,0,0,1,99,30.69a4.83,4.83,0,0,1,3.63-1.5c3.38,0,5.08,2.19,5.08,6.57A7.61,7.61,0,0,1,106.21,40.68Z"/><rect class="cls-4" x="174.21" y="9.9" width="8.84" height="39.4"/><path class="cls-4" d="M219.56,19.23A4.39,4.39,0,0,0,224,14.8a4.16,4.16,0,0,0-1.28-3.08,4.32,4.32,0,0,0-3.14-1.25,4.32,4.32,0,0,0-4.37,4.33,4.28,4.28,0,0,0,1.28,3.14A4.22,4.22,0,0,0,219.56,19.23Z"/><path class="cls-4" d="M229.93,49.3h51V45q0-15.26-11.62-20.66l12.63-7.5V8.06l-22.7,14.25v6.41q12.36,2.54,13,13.65H224V23h-8.84V49.84c0,2.5-.44,4.26-1.31,5.3a4.79,4.79,0,0,1-3.77,1.36,15.25,15.25,0,0,1-3.79-.43l-.63,7a22.58,22.58,0,0,0,4,.33Q224,63.38,224,49.52V49.3h6Z"/><path class="cls-4" d="M346.67,25.89q-3.36-3.64-10-3.64-7.07,0-11.17,4.13a12.84,12.84,0,0,0-3.68,9.38q0,4.93,2.46,7a8.62,8.62,0,0,0-3-.43H301.35V23H292.5V49.84c0,2.5-.43,4.26-1.31,5.3a4.75,4.75,0,0,1-3.76,1.36,15.33,15.33,0,0,1-3.8-.43l-.62,7a22.46,22.46,0,0,0,3.95.33q14.39,0,14.39-13.86V49.3h48.41v-14Q349.76,29.24,346.67,25.89Zm-5.54,16.48h-3.41q-7.2,0-7.2-6.77A7,7,0,0,1,332,31a5.08,5.08,0,0,1,4.15-1.85q5,0,5,7Z"/><path class="cls-4" d="M14.56,75.63a2.82,2.82,0,0,0,.8-2,2.76,2.76,0,0,0-.8-2,2.65,2.65,0,0,0-2-.84,2.62,2.62,0,0,0-2,.84,3,3,0,0,0,0,4,2.64,2.64,0,0,0,2,.83A2.68,2.68,0,0,0,14.56,75.63Z"/><path class="cls-4" d="M22.91,94.87H17.23q-5.7,0-8.08-2.11T6.9,86.25a16.35,16.35,0,0,1,1.42-6.88l-5.88,1a19,19,0,0,0-1.08,6.55q0,6,3.4,9,3.74,3.31,11.9,3.32H28.4V79.61H22.91Z"/><path class="cls-4" d="M19.49,76.46a2.64,2.64,0,0,0,2-.83,2.81,2.81,0,0,0,.79-2,2.75,2.75,0,0,0-.79-2,2.58,2.58,0,0,0-2-.84,2.55,2.55,0,0,0-1.95.84,2.91,2.91,0,0,0,0,4A2.58,2.58,0,0,0,19.49,76.46Z"/><path class="cls-4" d="M75.37,79.08a10.78,10.78,0,0,0-8.13,3.08,9.73,9.73,0,0,0-2.69,7c0,2.85.77,4.83,2.32,6a7.68,7.68,0,0,0-2.32-.29H43.82v-25H38.33V99.21H84.8V88.67Q84.8,79.09,75.37,79.08Zm4.06,15.79H76.25Q70,94.87,70,89a6.07,6.07,0,0,1,1.31-4A4.57,4.57,0,0,1,75,83.42q4.45,0,4.46,5.92Z"/><path class="cls-4" d="M187.41,94.87h-7.3v-6.2q0-9.58-9.42-9.59a10.8,10.8,0,0,0-8.14,3.08,9.76,9.76,0,0,0-2.68,7c0,2.1-.43,3.59-1.28,4.47a4.84,4.84,0,0,1-3.61,1.2h-1.3A10.68,10.68,0,0,1,149,93.8q4.26-3.57,4.25-8a6.09,6.09,0,0,0-2-4.78c-1.56-1.37-3.81-2.06-6.73-2.06q-5.64,0-12,4.62L132,87.51q3.19.87,8.75,6.08a31.89,31.89,0,0,1-9.7,1.28h-5v-25h-5.49v25h-8.63V80.53a24.25,24.25,0,0,0-8.71-1.45q-5.43,0-8.4,3.18a10.28,10.28,0,0,0-2.64,7.28q0,9.66,11.17,9.67h3.25v.62q0,5.53-7.22,5.54a30.64,30.64,0,0,1-6.49-.71l-.35,4.49a37.32,37.32,0,0,0,6.35.55q6.63,0,10-3a9.41,9.41,0,0,0,3-7.36v-.08h18.78a33.59,33.59,0,0,0,13.76-2.59,15.14,15.14,0,0,0,8.58,2.59h3.38v0c3.08-.16,5-1.22,5.8-3.22,1.73,2.17,4.85,3.26,9.33,3.26h21.35V69.83h-5.5Zm-80.81,0h-2.66q-6.27,0-6.27-5.84A6,6,0,0,1,99,85a4.55,4.55,0,0,1,3.65-1.58,9.26,9.26,0,0,1,4,.75Zm38.66-3.62c-4.06-3.4-6.63-5.33-7.71-5.76q3.73-2.51,6.33-2.5a4.11,4.11,0,0,1,3,1,3.24,3.24,0,0,1,1,2.48A6,6,0,0,1,145.26,91.25Zm29.48,3.62h-3.18q-6.24,0-6.24-5.84a6.06,6.06,0,0,1,1.3-4,4.6,4.6,0,0,1,3.66-1.58q4.46,0,4.46,5.92Z"/><rect class="cls-4" x="203.38" y="69.83" width="5.5" height="29.38"/><path class="cls-4" d="M233.79,71.62a2.91,2.91,0,0,0,0,4,2.61,2.61,0,0,0,2,.83,2.68,2.68,0,0,0,2-.83,2.82,2.82,0,0,0,.8-2,2.76,2.76,0,0,0-.8-2,2.65,2.65,0,0,0-2-.84A2.61,2.61,0,0,0,233.79,71.62Z"/><path class="cls-4" d="M240.7,71.62a2.94,2.94,0,0,0,0,4,2.72,2.72,0,0,0,3.91,0,2.82,2.82,0,0,0,.8-2,2.76,2.76,0,0,0-.8-2,2.58,2.58,0,0,0-2-.84A2.65,2.65,0,0,0,240.7,71.62Z"/><path class="cls-4" d="M277.19,102.62a2.61,2.61,0,0,0-1.95.84,2.91,2.91,0,0,0,0,4,2.73,2.73,0,0,0,3.9,0,2.91,2.91,0,0,0,0-4A2.64,2.64,0,0,0,277.19,102.62Z"/><path class="cls-4" d="M270.27,102.62a2.61,2.61,0,0,0-1.95.84,2.94,2.94,0,0,0,0,4,2.63,2.63,0,0,0,1.95.81,2.68,2.68,0,0,0,2-.83,2.83,2.83,0,0,0-2-4.83Z"/><path class="cls-4" d="M291.68,76.11a2.79,2.79,0,0,0,2-.83,2.88,2.88,0,0,0-4.07-4.07,2.86,2.86,0,0,0,2,4.9Z"/><path class="cls-4" d="M315.93,75.63a2.85,2.85,0,0,0,.79-2,2.79,2.79,0,0,0-.79-2,2.63,2.63,0,0,0-2-.84,2.58,2.58,0,0,0-2,.84,2.86,2.86,0,0,0,0,4,2.61,2.61,0,0,0,2,.83A2.66,2.66,0,0,0,315.93,75.63Z"/><path class="cls-4" d="M309,75.63a2.8,2.8,0,0,0,.82-2,2.74,2.74,0,0,0-.82-2,2.72,2.72,0,0,0-3.93,0,2.89,2.89,0,0,0,0,4,2.61,2.61,0,0,0,2,.83A2.67,2.67,0,0,0,309,75.63Z"/><path class="cls-4" d="M329.19,75.63a2.81,2.81,0,0,0,.79-2,2.75,2.75,0,0,0-.79-2,2.74,2.74,0,0,0-3.95,0,2.94,2.94,0,0,0,0,4,2.63,2.63,0,0,0,2,.83A2.68,2.68,0,0,0,329.19,75.63Z"/><path class="cls-4" d="M336.07,75.63a2.81,2.81,0,0,0,.79-2,2.75,2.75,0,0,0-.79-2,2.58,2.58,0,0,0-1.95-.84,2.63,2.63,0,0,0-2,.84,2.94,2.94,0,0,0,0,4,2.61,2.61,0,0,0,2,.83A2.67,2.67,0,0,0,336.07,75.63Z"/><path class="cls-4" d="M342.44,94.87h-8.25V79.61H328.7V94.87h-7.4a26.69,26.69,0,0,0-3.17.21q2.42-2,2.41-6.29,0-4.85-2.62-7.34t-7.08-2.37A10.41,10.41,0,0,0,303.19,82a10.07,10.07,0,0,0-2.93,7.45,7.78,7.78,0,0,0,1.91,5.62,15.1,15.1,0,0,0-2.54-.21h-5.21V79.61h-5.49V94.87H278.06V79.61h-5.49V94.87H248.46V80.53a24.29,24.29,0,0,0-8.71-1.45c-3.62,0-6.43,1.06-8.41,3.18a10.28,10.28,0,0,0-2.64,7.28q0,9.66,11.17,9.67H347.93V69.83h-5.49Zm-99.32,0h-2.66q-6.27,0-6.26-5.84a6,6,0,0,1,1.32-4,4.53,4.53,0,0,1,3.64-1.58,9.2,9.2,0,0,1,4,.75Zm70.55-1.44a4.11,4.11,0,0,1-3.3,1.44c-3.08,0-4.61-2-4.61-5.88a5.82,5.82,0,0,1,1.46-4.25,4.3,4.3,0,0,1,3.23-1.32q4.56,0,4.56,5.65A6.48,6.48,0,0,1,313.67,93.43Z"/></g></g></g></svg>