<?xml version="1.0" encoding="utf-8"?>
<!-- Generator: Adobe Illustrator 16.0.0, SVG Export Plug-In . SVG Version: 6.00 Build 0)  -->
<!DOCTYPE svg PUBLIC "-//W3C//DTD SVG 1.1//EN" "http://www.w3.org/Graphics/SVG/1.1/DTD/svg11.dtd">
<svg version="1.1" id="Layer_1" xmlns="http://www.w3.org/2000/svg" xmlns:xlink="http://www.w3.org/1999/xlink" x="0px" y="0px"
	 width="420.213px" height="431.17px" viewBox="0 0 420.213 431.17" enable-background="new 0 0 420.213 431.17"
	 xml:space="preserve">
<g>
	<linearGradient id="SVGID_1_" gradientUnits="userSpaceOnUse" x1="112.6172" y1="-132.9004" x2="302.9376" y2="512.0739">
		<stop  offset="0" style="stop-color:#363795"/>
		<stop  offset="0.5904" style="stop-color:#39479D"/>
		<stop  offset="1" style="stop-color:#3C54A4"/>
	</linearGradient>
	<rect x="-9.074" y="-9.309" display="none" fill="url(#SVGID_1_)" width="445.252" height="436.929"/>
	<linearGradient id="SVGID_2_" gradientUnits="userSpaceOnUse" x1="129.7012" y1="1022.1045" x2="229.6799" y2="82.3112">
		<stop  offset="0" style="stop-color:#39328F"/>
		<stop  offset="1" style="stop-color:#2B3087"/>
	</linearGradient>
	<path fill-rule="evenodd" clip-rule="evenodd" fill="url(#SVGID_2_)" d="M367.94,293.181c4.896-15.507,7.545-32.015,7.545-49.142
		c0-90.029-72.981-163.01-163.011-163.01c-90.028,0-163.009,72.981-163.009,163.01c0,17.127,2.648,33.635,7.545,49.142H367.94z"/>
	<defs>
		<filter id="Adobe_OpacityMaskFilter" filterUnits="userSpaceOnUse" x="21.234" y="272.92" width="268.773" height="31.02">
			<feFlood  style="flood-color:white;flood-opacity:1" result="back"/>
			<feBlend  in="SourceGraphic" in2="back" mode="normal"/>
		</filter>
	</defs>
	<mask maskUnits="userSpaceOnUse" x="21.234" y="272.92" width="268.773" height="31.02" id="SVGID_3_">
		<g filter="url(#Adobe_OpacityMaskFilter)">
			<defs>
				<filter id="Adobe_OpacityMaskFilter_1_" filterUnits="userSpaceOnUse" x="21.234" y="272.92" width="268.773" height="31.02">
					<feFlood  style="flood-color:white;flood-opacity:1" result="back"/>
					<feBlend  in="SourceGraphic" in2="back" mode="normal"/>
				</filter>
			</defs>
			<mask maskUnits="userSpaceOnUse" x="21.234" y="272.92" width="268.773" height="31.02" id="SVGID_3_">
				<g filter="url(#Adobe_OpacityMaskFilter_1_)">
				</g>
			</mask>
			
				<radialGradient id="SVGID_4_" cx="160.4844" cy="-1455.6875" r="81.4248" gradientTransform="matrix(1.6503 0 0 0.1905 -109.2267 565.739)" gradientUnits="userSpaceOnUse">
				<stop  offset="0.1675" style="stop-color:#FFFFFF"/>
				<stop  offset="0.2396" style="stop-color:#F8F8F8"/>
				<stop  offset="0.3483" style="stop-color:#E3E3E3"/>
				<stop  offset="0.4802" style="stop-color:#C1C1C1"/>
				<stop  offset="0.6302" style="stop-color:#929292"/>
				<stop  offset="0.7955" style="stop-color:#555555"/>
				<stop  offset="0.9712" style="stop-color:#0D0D0D"/>
				<stop  offset="1" style="stop-color:#000000"/>
			</radialGradient>
			<path mask="url(#SVGID_3_)" fill="url(#SVGID_4_)" d="M290.008,288.428c0,8.569-60.167,15.512-134.385,15.512
				c-74.222,0-134.388-6.943-134.388-15.512c0-8.563,60.167-15.508,134.388-15.508C229.841,272.92,290.008,279.865,290.008,288.428z
				"/>
		</g>
	</mask>
	
		<radialGradient id="SVGID_5_" cx="160.4844" cy="-1455.6875" r="81.4248" gradientTransform="matrix(1.6503 0 0 0.1905 -109.2267 565.739)" gradientUnits="userSpaceOnUse">
		<stop  offset="0.1675" style="stop-color:#22205F"/>
		<stop  offset="0.2396" style="stop-color:#262462"/>
		<stop  offset="0.3483" style="stop-color:#34316A"/>
		<stop  offset="0.4802" style="stop-color:#4A4678"/>
		<stop  offset="0.6302" style="stop-color:#6B658F"/>
		<stop  offset="0.7955" style="stop-color:#9B96B4"/>
		<stop  offset="0.9712" style="stop-color:#E9E8EE"/>
		<stop  offset="1" style="stop-color:#FFFFFF"/>
	</radialGradient>
	<path display="none" fill="url(#SVGID_5_)" d="M290.008,288.428c0,8.569-60.167,15.512-134.385,15.512
		c-74.222,0-134.388-6.943-134.388-15.512c0-8.563,60.167-15.508,134.388-15.508C229.841,272.92,290.008,279.865,290.008,288.428z"
		/>
	<g>
		<g>
			
				<linearGradient id="SVGID_6_" gradientUnits="userSpaceOnUse" x1="864.749" y1="-843.2793" x2="885.5269" y2="-765.8763" gradientTransform="matrix(0.8496 -0.5274 0.5274 0.8496 36.1996 1394.9133)">
				<stop  offset="0.2905" style="stop-color:#8CC866"/>
				<stop  offset="0.2985" style="stop-color:#8AC469"/>
				<stop  offset="0.4345" style="stop-color:#6B998A"/>
				<stop  offset="0.557" style="stop-color:#567A99"/>
				<stop  offset="0.6618" style="stop-color:#48659F"/>
				<stop  offset="0.7448" style="stop-color:#4058A2"/>
				<stop  offset="0.7957" style="stop-color:#3C54A4"/>
			</linearGradient>
			<path fill-rule="evenodd" clip-rule="evenodd" fill="url(#SVGID_6_)" d="M363.492,270.887c0,0,2.244-16.56-4.682-29.393
				c-6.905-12.831-16.473-11.384-18.706-6.604C336.135,244.882,359.312,250.272,363.492,270.887L363.492,270.887z"/>
			
				<linearGradient id="SVGID_7_" gradientUnits="userSpaceOnUse" x1="911.4043" y1="-802.5742" x2="865.2853" y2="-774.7202" gradientTransform="matrix(0.8496 -0.5274 0.5274 0.8496 36.1996 1394.9133)">
				<stop  offset="0.2905" style="stop-color:#8CC866"/>
				<stop  offset="0.2985" style="stop-color:#8AC469"/>
				<stop  offset="0.4345" style="stop-color:#6B998A"/>
				<stop  offset="0.557" style="stop-color:#567A99"/>
				<stop  offset="0.6618" style="stop-color:#48659F"/>
				<stop  offset="0.7448" style="stop-color:#4058A2"/>
				<stop  offset="0.7957" style="stop-color:#3C54A4"/>
			</linearGradient>
			<path fill-rule="evenodd" clip-rule="evenodd" fill="url(#SVGID_7_)" d="M369.41,271.337c0,0,3.049-12.874,10.523-19.215
				c2.146-1.686,4.091-2.697,5.436-3.698c4.736-3.542-0.863-7.438-4.522-7.542c-2.265-0.059-4.763,1.05-6.903,4.225
				C369.427,251.875,368.752,261.789,369.41,271.337L369.41,271.337z"/>
			
				<linearGradient id="SVGID_8_" gradientUnits="userSpaceOnUse" x1="926.1904" y1="-843.4736" x2="859.5194" y2="-763.103" gradientTransform="matrix(0.8496 -0.5274 0.5274 0.8496 36.1996 1394.9133)">
				<stop  offset="0.2905" style="stop-color:#8CC866"/>
				<stop  offset="0.2985" style="stop-color:#8AC469"/>
				<stop  offset="0.4345" style="stop-color:#6B998A"/>
				<stop  offset="0.557" style="stop-color:#567A99"/>
				<stop  offset="0.6618" style="stop-color:#48659F"/>
				<stop  offset="0.7448" style="stop-color:#4058A2"/>
				<stop  offset="0.7957" style="stop-color:#3C54A4"/>
			</linearGradient>
			<path fill-rule="evenodd" clip-rule="evenodd" fill="url(#SVGID_8_)" d="M368.065,274.142c-0.503-1.569-7.297-27.111-6.68-41.248
				c0.608-14.131,14.135-21.148,19.538-17.501c5.388,3.642,5.172,9.677-1.386,18.389
				C369.99,246.448,367.694,258.497,368.065,274.142L368.065,274.142z"/>
		</g>
		<path fill="#122344" d="M355.691,270.299c0,0,2.318,16.549,4.177,17.801c0.938,0.633,12.459,1.421,13.995-0.046
			c1.537-1.472,5.264-18.813,5.264-18.813L355.691,270.299z"/>
		<path fill="#363795" d="M354.958,265.586c0,0-1.813,2.984-0.102,4.736c1.712,1.749,24.816,2.344,25.232-0.023
			c0.141-0.801,0.682-4.36-2.169-4.831C375.063,264.995,355.559,264.323,354.958,265.586z"/>
	</g>
	<g>
		<rect x="196.71" y="192.928" fill-rule="evenodd" clip-rule="evenodd" fill="#0F1739" width="4.109" height="8.95"/>
		<path fill-rule="evenodd" clip-rule="evenodd" fill="#172949" d="M198.765,200.78c6.561,0,11.925,0.937,12.312,2.121h-24.625
			C186.842,201.717,192.204,200.78,198.765,200.78L198.765,200.78z"/>
		<path fill-rule="evenodd" clip-rule="evenodd" fill="#172949" d="M173.256,159.088h51.016c1.298,0,2.361,1.095,2.361,2.433v30.187
			h-55.738v-30.187C170.896,160.183,171.959,159.088,173.256,159.088L173.256,159.088z"/>
		<path fill-rule="evenodd" clip-rule="evenodd" fill="#DBCEE6" d="M226.634,191.708v1.065c0,1.338-1.063,2.433-2.361,2.433h-51.016
			c-1.297,0-2.36-1.095-2.36-2.433v-1.065H226.634z"/>
		<path fill-rule="evenodd" clip-rule="evenodd" fill="#54B5D3" d="M173.256,160.345h51.016c0.628,0,1.141,0.53,1.141,1.176v28.936
			h-53.298v-28.936C172.115,160.875,172.628,160.345,173.256,160.345L173.256,160.345z"/>
		<path fill-rule="evenodd" clip-rule="evenodd" fill="#FFFFFF" d="M198.765,194.3c0.462,0,0.838-0.387,0.838-0.864
			c0-0.472-0.376-0.86-0.838-0.86c-0.462,0-0.839,0.388-0.839,0.86C197.925,193.913,198.302,194.3,198.765,194.3L198.765,194.3z"/>
	</g>
	<g>
		<path fill-rule="evenodd" clip-rule="evenodd" fill="#BAE2F5" d="M183.948,163.585h36.505c0.993,0,1.803,0.81,1.803,1.804l0,0
			c0,0.992-0.81,1.805-1.803,1.805h-36.505c-0.99,0-1.803-0.813-1.803-1.805l0,0C182.145,164.395,182.958,163.585,183.948,163.585
			L183.948,163.585z"/>
		<path fill-rule="evenodd" clip-rule="evenodd" fill="#333086" d="M177.077,163.585h1.333c0.99,0,1.804,0.81,1.804,1.804l0,0
			c0,0.992-0.813,1.805-1.804,1.805h-1.333c-0.994,0-1.804-0.813-1.804-1.805l0,0C175.273,164.395,176.083,163.585,177.077,163.585
			L177.077,163.585z"/>
		<path fill="#FFFFFF" d="M176.551,164.315c0.157-0.158,0.358-0.234,0.562-0.234c0.206,0,0.408,0.076,0.563,0.234
			c0.156,0.151,0.231,0.358,0.231,0.562c0,0.15-0.041,0.305-0.129,0.437l1.048,1.047c0.064,0.063,0.064,0.163,0,0.228l0,0
			c-0.061,0.059-0.163,0.059-0.228,0l-1.046-1.051c-0.133,0.088-0.284,0.13-0.438,0.13c-0.204,0-0.405-0.076-0.562-0.234
			c-0.156-0.154-0.23-0.356-0.23-0.558C176.321,164.673,176.395,164.466,176.551,164.315L176.551,164.315z M177.113,164.36
			c-0.131,0-0.262,0.049-0.365,0.151c-0.1,0.1-0.15,0.23-0.15,0.366c0,0.13,0.051,0.264,0.15,0.361
			c0.104,0.104,0.234,0.154,0.365,0.154c0.133,0,0.266-0.05,0.365-0.154c0.101-0.098,0.151-0.231,0.151-0.361
			c0-0.136-0.051-0.266-0.151-0.366C177.378,164.409,177.246,164.36,177.113,164.36L177.113,164.36z"/>
	</g>
	<g>
		<path fill-rule="evenodd" clip-rule="evenodd" fill="#BAE2F5" d="M177.378,169.198h42.772c0.811,0,1.476,0.666,1.476,1.475v16.224
			c0,0.811-0.666,1.478-1.476,1.478h-42.772c-0.813,0-1.475-0.667-1.475-1.478v-16.224
			C175.904,169.864,176.565,169.198,177.378,169.198L177.378,169.198z"/>
	</g>
	<g>
		<path fill-rule="evenodd" clip-rule="evenodd" fill="#EEEEEE" d="M339.827,250.461H238.666c9.35,12.183,8.38,24.359,0,36.542
			h101.161c10.043,0,18.269-8.215,18.269-18.271l0,0C358.096,258.683,349.87,250.461,339.827,250.461L339.827,250.461z"/>
		<g>
			<path fill-rule="evenodd" clip-rule="evenodd" fill="#CCCCCC" d="M295.607,255.158c23.785,0,43.828,0.396,49.82,0.956h-99.65
				C251.77,255.554,271.815,255.158,295.607,255.158L295.607,255.158z M303.719,269.462c23.794,0,43.831-0.399,49.821-0.94h-99.651
				C259.894,269.063,279.925,269.462,303.719,269.462L303.719,269.462z M299.621,275.689c23.794,0,43.826-0.403,49.82-0.941h-99.65
				C255.793,275.286,275.826,275.689,299.621,275.689L299.621,275.689z M295.524,281.916c23.796,0,43.826-0.4,49.821-0.948h-99.651
				C251.698,281.516,271.73,281.916,295.524,281.916L295.524,281.916z M299.704,261.378c23.787,0,43.828,0.401,49.822,0.956h-99.647
				C255.868,261.78,275.911,261.378,299.704,261.378L299.704,261.378z"/>
		</g>
		<linearGradient id="SVGID_9_" gradientUnits="userSpaceOnUse" x1="387.3135" y1="268.5117" x2="117.9065" y2="269.0966">
			<stop  offset="0" style="stop-color:#EC008C"/>
			<stop  offset="1" style="stop-color:#FBB040"/>
		</linearGradient>
		<path fill="url(#SVGID_9_)" d="M339.827,248.576c-35.988,0-71.982,0-107.969,0c-2.542,0.185-2.508,3.716,0,3.769h107.969
			c4.5,0,8.595,1.845,11.57,4.81c2.965,2.972,4.813,7.071,4.813,11.578c0,4.507-1.849,8.605-4.813,11.57
			c-2.976,2.972-7.07,4.823-11.57,4.823c-35.988,0-71.982,0-107.969,0c-2.74,0.184-2.714,3.723,0,3.763h107.969
			c5.535,0,10.583-2.266,14.225-5.923c3.653-3.651,5.926-8.691,5.926-14.232c0-5.542-2.272-10.591-5.926-14.232
			C350.41,250.847,345.362,248.576,339.827,248.576L339.827,248.576z"/>
	</g>
	<g>
		<path fill-rule="evenodd" clip-rule="evenodd" fill="#EEEEEE" d="M332.617,216.8h-84.929c7.85,10.227,7.038,20.45,0,30.676h84.929
			c8.432,0,15.336-6.896,15.336-15.338l0,0C347.953,223.702,341.049,216.8,332.617,216.8L332.617,216.8z"/>
		<g>
			<path fill-rule="evenodd" clip-rule="evenodd" fill="#CCCCCC" d="M295.495,220.743c19.967,0,36.793,0.332,41.823,0.803H253.66
				C258.69,221.075,275.518,220.743,295.495,220.743L295.495,220.743z M302.302,232.753c19.975,0,36.799-0.338,41.827-0.791H260.47
				C265.511,232.415,282.326,232.753,302.302,232.753L302.302,232.753z M298.863,237.98c19.975,0,36.793-0.338,41.825-0.791h-83.66
				C262.068,237.642,278.887,237.98,298.863,237.98L298.863,237.98z M295.423,243.208c19.977,0,36.795-0.336,41.829-0.796h-83.664
				C258.63,242.872,275.448,243.208,295.423,243.208L295.423,243.208z M298.932,225.965c19.973,0,36.795,0.337,41.829,0.802h-83.658
				C262.13,226.302,278.957,225.965,298.932,225.965L298.932,225.965z"/>
		</g>
		
			<linearGradient id="SVGID_10_" gradientUnits="userSpaceOnUse" x1="186.7256" y1="232.1387" x2="296.0029" y2="232.1387" gradientTransform="matrix(-1 0 0 1 536.2588 0)">
			<stop  offset="0" style="stop-color:#3C54A4"/>
			<stop  offset="1" style="stop-color:#1C75BC"/>
		</linearGradient>
		<path fill="url(#SVGID_10_)" d="M332.617,215.217c-30.215,0-60.432,0-90.644,0c-2.136,0.155-2.105,3.12,0,3.165h90.644
			c3.776,0,7.216,1.548,9.713,4.038c2.491,2.493,4.042,5.935,4.042,9.719c0,3.786-1.551,7.224-4.042,9.714
			c-2.497,2.495-5.937,4.05-9.713,4.05c-30.215,0-60.432,0-90.644,0c-2.301,0.154-2.279,3.126,0,3.159h90.644
			c4.646,0,8.885-1.903,11.941-4.975c3.066-3.064,4.975-7.295,4.975-11.948c0-4.652-1.908-8.892-4.975-11.948
			C341.502,217.124,337.263,215.217,332.617,215.217L332.617,215.217z"/>
	</g>
	<g>
		<path fill-rule="evenodd" clip-rule="evenodd" fill="#EEEEEE" d="M328.293,189.008h-68.604c6.34,8.261,5.684,16.519,0,24.779
			h68.604c6.809,0,12.387-5.57,12.387-12.389l0,0C340.68,194.583,335.102,189.008,328.293,189.008L328.293,189.008z"/>
		<g>
			<path fill-rule="evenodd" clip-rule="evenodd" fill="#CCCCCC" d="M298.304,192.192c16.13,0,29.723,0.268,33.784,0.649h-67.575
				C268.575,192.46,282.169,192.192,298.304,192.192L298.304,192.192z M303.805,201.894c16.133,0,29.724-0.272,33.785-0.638h-67.576
				C274.085,201.622,287.669,201.894,303.805,201.894L303.805,201.894z M301.024,206.115c16.137,0,29.724-0.272,33.787-0.638
				h-67.577C271.304,205.843,284.89,206.115,301.024,206.115L301.024,206.115z M298.246,210.34c16.138,0,29.723-0.273,33.788-0.643
				h-67.579C268.528,210.067,282.112,210.34,298.246,210.34L298.246,210.34z M301.084,196.413c16.131,0,29.721,0.271,33.783,0.646
				h-67.574C271.354,196.683,284.947,196.413,301.084,196.413L301.084,196.413z"/>
		</g>
		
			<linearGradient id="SVGID_11_" gradientUnits="userSpaceOnUse" x1="194.3018" y1="201.3984" x2="282.5728" y2="201.3984" gradientTransform="matrix(-1 0 0 1 536.2588 0)">
			<stop  offset="0" style="stop-color:#EC008C"/>
			<stop  offset="1" style="stop-color:#FBB040"/>
		</linearGradient>
		<path fill="url(#SVGID_11_)" d="M328.293,187.729c-24.408,0-48.817,0-73.22,0c-1.724,0.124-1.701,2.518,0,2.555h73.22
			c3.05,0,5.827,1.251,7.846,3.261c2.01,2.016,3.262,4.796,3.262,7.853c0,3.056-1.252,5.835-3.262,7.846
			c-2.019,2.015-4.796,3.27-7.846,3.27c-24.408,0-48.817,0-73.22,0c-1.858,0.126-1.84,2.526,0,2.552h73.22
			c3.753,0,7.175-1.537,9.645-4.019c2.478-2.475,4.02-5.891,4.02-9.649c0-3.761-1.542-7.183-4.02-9.652
			C335.468,189.27,332.046,187.729,328.293,187.729L328.293,187.729z"/>
	</g>
	<g>
		<g>
			
				<linearGradient id="SVGID_12_" gradientUnits="userSpaceOnUse" x1="-3126.3042" y1="845.877" x2="-3105.2415" y2="860.3575" gradientTransform="matrix(-0.9846 0.1746 0.1746 0.9846 -2957.2969 -108.7902)">
				<stop  offset="0.2905" style="stop-color:#8CC866"/>
				<stop  offset="0.2985" style="stop-color:#8AC469"/>
				<stop  offset="0.4345" style="stop-color:#6B998A"/>
				<stop  offset="0.557" style="stop-color:#567A99"/>
				<stop  offset="0.6618" style="stop-color:#48659F"/>
				<stop  offset="0.7448" style="stop-color:#4058A2"/>
				<stop  offset="0.7957" style="stop-color:#3C54A4"/>
			</linearGradient>
			<path fill="url(#SVGID_12_)" d="M253.631,196.332c0.073-8.258,12.149-12.508,13.154-15.868c-1.271-0.629-2.897-0.184-4.03,0.484
				c-3.892,2.28-8.487,8.596-9.815,13.06c-0.152,0.503-0.427,1.369-0.248,1.918c0.134,0.418,0.903,1.126,0.954,0.252
				L253.631,196.332z"/>
			
				<linearGradient id="SVGID_13_" gradientUnits="userSpaceOnUse" x1="-3126.4854" y1="834.7803" x2="-3103.0867" y2="862.2598" gradientTransform="matrix(-0.9846 0.1746 0.1746 0.9846 -2957.2969 -108.7902)">
				<stop  offset="0.2905" style="stop-color:#8CC866"/>
				<stop  offset="0.2985" style="stop-color:#8AC469"/>
				<stop  offset="0.4345" style="stop-color:#6B998A"/>
				<stop  offset="0.557" style="stop-color:#567A99"/>
				<stop  offset="0.6618" style="stop-color:#48659F"/>
				<stop  offset="0.7448" style="stop-color:#4058A2"/>
				<stop  offset="0.7957" style="stop-color:#3C54A4"/>
			</linearGradient>
			<path fill="url(#SVGID_13_)" d="M264.188,172.289c-1.86,6.949-9.038,7.97-10.867,21.708c-0.179,0.897,0.025,1.857-0.665,2.509
				c-0.665,0.632-1.032,0.377-1.217-0.136C252.676,185.165,257.47,174.522,264.188,172.289L264.188,172.289z"/>
			
				<linearGradient id="SVGID_14_" gradientUnits="userSpaceOnUse" x1="-1852.1455" y1="424.9868" x2="-1844.2645" y2="445.8714" gradientTransform="matrix(-0.9921 0.1256 0.1256 0.9921 -1634.6763 -16.997)">
				<stop  offset="0.2905" style="stop-color:#8CC866"/>
				<stop  offset="0.2985" style="stop-color:#8AC469"/>
				<stop  offset="0.4345" style="stop-color:#6B998A"/>
				<stop  offset="0.557" style="stop-color:#567A99"/>
				<stop  offset="0.6618" style="stop-color:#48659F"/>
				<stop  offset="0.7448" style="stop-color:#4058A2"/>
				<stop  offset="0.7957" style="stop-color:#3C54A4"/>
			</linearGradient>
			<path fill="url(#SVGID_14_)" d="M256.708,170.036c1.163,6.993-5.828,9.705-3.514,26.577c-0.41,0.002-0.839,0.354-1.059-0.176
				C249.831,177.903,252.664,173.179,256.708,170.036L256.708,170.036z"/>
			
				<linearGradient id="SVGID_15_" gradientUnits="userSpaceOnUse" x1="-3099.2568" y1="837.3018" x2="-3109.502" y2="861.9542" gradientTransform="matrix(-0.9846 0.1746 0.1746 0.9846 -2957.2969 -108.7902)">
				<stop  offset="0.2905" style="stop-color:#8CC866"/>
				<stop  offset="0.2985" style="stop-color:#8AC469"/>
				<stop  offset="0.4345" style="stop-color:#6B998A"/>
				<stop  offset="0.557" style="stop-color:#567A99"/>
				<stop  offset="0.6618" style="stop-color:#48659F"/>
				<stop  offset="0.7448" style="stop-color:#4058A2"/>
				<stop  offset="0.7957" style="stop-color:#3C54A4"/>
			</linearGradient>
			<path fill="url(#SVGID_15_)" d="M250.996,196.472c1.899-11.579-9.238-12.196-11.427-18.269
				c7.15-2.758,14.424,8.998,12.857,18.366L250.996,196.472z"/>
			
				<linearGradient id="SVGID_16_" gradientUnits="userSpaceOnUse" x1="4031.9385" y1="-2852.4448" x2="4025.5366" y2="-2837.0405" gradientTransform="matrix(0.7104 0.7038 -0.7038 0.7104 -4605.3159 -622.3918)">
				<stop  offset="0.2905" style="stop-color:#8CC866"/>
				<stop  offset="0.2985" style="stop-color:#8AC469"/>
				<stop  offset="0.4345" style="stop-color:#6B998A"/>
				<stop  offset="0.557" style="stop-color:#567A99"/>
				<stop  offset="0.6618" style="stop-color:#48659F"/>
				<stop  offset="0.7448" style="stop-color:#4058A2"/>
				<stop  offset="0.7957" style="stop-color:#3C54A4"/>
			</linearGradient>
			<path fill="url(#SVGID_16_)" d="M253.298,196.499c3.066-6.764,9.105-2.931,12.38-5.29c-2.771-4.111-10.697-0.676-13.163,4.805
				L253.298,196.499z"/>
			
				<linearGradient id="SVGID_17_" gradientUnits="userSpaceOnUse" x1="-1474.4624" y1="345.623" x2="-1479.3076" y2="357.2819" gradientTransform="matrix(-0.9641 0.2656 0.2656 0.9641 -1268.587 244.9247)">
				<stop  offset="0.2905" style="stop-color:#8CC866"/>
				<stop  offset="0.2985" style="stop-color:#8AC469"/>
				<stop  offset="0.4345" style="stop-color:#6B998A"/>
				<stop  offset="0.557" style="stop-color:#567A99"/>
				<stop  offset="0.6618" style="stop-color:#48659F"/>
				<stop  offset="0.7448" style="stop-color:#4058A2"/>
				<stop  offset="0.7957" style="stop-color:#3C54A4"/>
			</linearGradient>
			<path fill="url(#SVGID_17_)" d="M250.679,196.416c0.401-5.553-4.884-5.338-6.178-8.107c3.257-1.628,7.195,3.593,6.856,8.088
				L250.679,196.416z"/>
		</g>
		<g>
			<path fill="#122344" d="M248.778,197.487c0,0,0.755,5.552,1.358,5.972c0.307,0.214,4.058,0.478,4.556-0.017
				c0.499-0.49,1.713-6.312,1.713-6.312L248.778,197.487z"/>
			<path fill="#363795" d="M248.539,195.902c0,0-0.591,1.003-0.034,1.587c0.56,0.592,8.076,0.791,8.213-0.002
				c0.044-0.272,0.222-1.465-0.706-1.625C255.083,195.705,248.734,195.481,248.539,195.902z"/>
		</g>
	</g>
	<g>
		<linearGradient id="SVGID_18_" gradientUnits="userSpaceOnUse" x1="227.7578" y1="183.2627" x2="226.44" y2="234.0703">
			<stop  offset="0" style="stop-color:#DF068C"/>
			<stop  offset="1" style="stop-color:#666699"/>
		</linearGradient>
		<path fill-rule="evenodd" clip-rule="evenodd" fill="url(#SVGID_18_)" d="M223.021,192.276h5.919c0.561,0,1.011,0.405,1.094,0.927
			c0.898,0,1.627,0.319,2.161,0.838c0.335,0.349,0.588,0.751,0.728,1.243c0.113,0.462,0.141,0.956,0.028,1.476
			c-0.253,1.157-1.122,2.372-2.889,3.24v1.852c0,0.638-0.505,1.158-1.122,1.158h-5.919c-0.619,0-1.123-0.52-1.123-1.158v-8.417
			C221.897,192.795,222.402,192.276,223.021,192.276L223.021,192.276z M230.062,194.648v3.704c0.925-0.579,1.375-1.244,1.515-1.88
			c0.056-0.288,0.056-0.553,0-0.78c-0.085-0.233-0.196-0.435-0.365-0.609C230.959,194.821,230.538,194.648,230.062,194.648
			L230.062,194.648z"/>
	</g>
	<linearGradient id="SVGID_19_" gradientUnits="userSpaceOnUse" x1="223.6685" y1="1587.4443" x2="161.6913" y2="-35.0941">
		<stop  offset="0" style="stop-color:#EC008C"/>
		<stop  offset="1" style="stop-color:#FFCB56"/>
	</linearGradient>
	<polygon opacity="0.1" fill="url(#SVGID_19_)" points="251.438,129.987 46.004,289.032 254.074,288.428 296.815,149.657 	"/>
	<g>
		<g>
			
				<linearGradient id="SVGID_20_" gradientUnits="userSpaceOnUse" x1="-1626.3989" y1="147.3535" x2="-1608.0662" y2="247.052" gradientTransform="matrix(-1 0 0 1 -1511.8955 0)">
				<stop  offset="0.2905" style="stop-color:#8CC866"/>
				<stop  offset="0.2985" style="stop-color:#8AC469"/>
				<stop  offset="0.4345" style="stop-color:#6B998A"/>
				<stop  offset="0.557" style="stop-color:#567A99"/>
				<stop  offset="0.6618" style="stop-color:#48659F"/>
				<stop  offset="0.7448" style="stop-color:#4058A2"/>
				<stop  offset="0.7957" style="stop-color:#3C54A4"/>
			</linearGradient>
			<path fill-rule="evenodd" clip-rule="evenodd" fill="url(#SVGID_20_)" d="M90.464,263.23c0,0,31.16-69.651,19.646-77.732
				C98.583,177.401,92.202,220.849,90.464,263.23L90.464,263.23z"/>
			
				<linearGradient id="SVGID_21_" gradientUnits="userSpaceOnUse" x1="-1603.2866" y1="145.6387" x2="-1595.2128" y2="276.1646" gradientTransform="matrix(-1 0 0 1 -1511.8955 0)">
				<stop  offset="0.2905" style="stop-color:#8CC866"/>
				<stop  offset="0.2985" style="stop-color:#8AC469"/>
				<stop  offset="0.4345" style="stop-color:#6B998A"/>
				<stop  offset="0.557" style="stop-color:#567A99"/>
				<stop  offset="0.6618" style="stop-color:#48659F"/>
				<stop  offset="0.7448" style="stop-color:#4058A2"/>
				<stop  offset="0.7957" style="stop-color:#3C54A4"/>
			</linearGradient>
			<path fill-rule="evenodd" clip-rule="evenodd" fill="url(#SVGID_21_)" d="M90.44,263.532c0,0,17.1-98.697-0.059-104.991
				C73.223,152.237,79.057,209.354,90.44,263.532L90.44,263.532z"/>
			
				<linearGradient id="SVGID_22_" gradientUnits="userSpaceOnUse" x1="-1576.0376" y1="184.0269" x2="-1602.8695" y2="274.3608" gradientTransform="matrix(-1 0 0 1 -1511.8955 0)">
				<stop  offset="0.2905" style="stop-color:#8CC866"/>
				<stop  offset="0.2985" style="stop-color:#8AC469"/>
				<stop  offset="0.4345" style="stop-color:#6B998A"/>
				<stop  offset="0.557" style="stop-color:#567A99"/>
				<stop  offset="0.6618" style="stop-color:#48659F"/>
				<stop  offset="0.7448" style="stop-color:#4058A2"/>
				<stop  offset="0.7957" style="stop-color:#3C54A4"/>
			</linearGradient>
			<path fill-rule="evenodd" clip-rule="evenodd" fill="url(#SVGID_22_)" d="M90.533,263.58c0,0-9.268-68.957-21.392-73.365
				c-12.125-4.416-7.841,16.547-0.355,31.625C75.829,236.023,83.068,249.603,90.533,263.58L90.533,263.58z"/>
			
				<linearGradient id="SVGID_23_" gradientUnits="userSpaceOnUse" x1="-1631.873" y1="200.2881" x2="-1601.3297" y2="262.0437" gradientTransform="matrix(-1 0 0 1 -1511.8955 0)">
				<stop  offset="0.2905" style="stop-color:#8CC866"/>
				<stop  offset="0.2985" style="stop-color:#8AC469"/>
				<stop  offset="0.4345" style="stop-color:#6B998A"/>
				<stop  offset="0.557" style="stop-color:#567A99"/>
				<stop  offset="0.6618" style="stop-color:#48659F"/>
				<stop  offset="0.7448" style="stop-color:#4058A2"/>
				<stop  offset="0.7957" style="stop-color:#3C54A4"/>
			</linearGradient>
			<path fill-rule="evenodd" clip-rule="evenodd" fill="url(#SVGID_23_)" d="M90.454,263.402c0,0,9.515-13.787,16.956-26.466
				c19.119-32.57-0.081-30.414-7.861-5.899C93.13,251.263,90.454,263.402,90.454,263.402L90.454,263.402z"/>
			
				<linearGradient id="SVGID_24_" gradientUnits="userSpaceOnUse" x1="-1552.6035" y1="233.6533" x2="-1613.0083" y2="269.546" gradientTransform="matrix(-1 0 0 1 -1511.8955 0)">
				<stop  offset="0.2905" style="stop-color:#8CC866"/>
				<stop  offset="0.2985" style="stop-color:#8AC469"/>
				<stop  offset="0.4345" style="stop-color:#6B998A"/>
				<stop  offset="0.557" style="stop-color:#567A99"/>
				<stop  offset="0.6618" style="stop-color:#48659F"/>
				<stop  offset="0.7448" style="stop-color:#4058A2"/>
				<stop  offset="0.7957" style="stop-color:#3C54A4"/>
			</linearGradient>
			<path fill-rule="evenodd" clip-rule="evenodd" fill="url(#SVGID_24_)" d="M90.558,263.255c0,0-7.217-13.881-15.773-17.644
				c-16.303-8.01-30.502,8.034-8.745,7.471C73.083,252.897,82.389,253.871,90.558,263.255L90.558,263.255z"/>
			
				<linearGradient id="SVGID_25_" gradientUnits="userSpaceOnUse" x1="-1673.9575" y1="249.7246" x2="-1580.9882" y2="255.3372" gradientTransform="matrix(-1 0 0 1 -1511.8955 0)">
				<stop  offset="0.3397" style="stop-color:#8DC63F"/>
				<stop  offset="0.4176" style="stop-color:#79A965"/>
				<stop  offset="0.5209" style="stop-color:#628984"/>
				<stop  offset="0.6141" style="stop-color:#517295"/>
				<stop  offset="0.6938" style="stop-color:#46629D"/>
				<stop  offset="0.757" style="stop-color:#3F57A2"/>
				<stop  offset="0.7957" style="stop-color:#3C54A4"/>
			</linearGradient>
			<path fill-rule="evenodd" clip-rule="evenodd" fill="url(#SVGID_25_)" d="M90.417,263.255c0,0,7.229-13.881,15.787-17.644
				c16.303-8.01,30.503,8.034,8.73,7.471C107.907,252.897,98.598,253.871,90.417,263.255L90.417,263.255z"/>
		</g>
		<g>
			<path fill="#122344" d="M76.742,266.197c0,0,2.759,20.33,4.975,21.868c1.115,0.775,14.848,1.745,16.675-0.061
				c1.826-1.8,6.272-23.11,6.272-23.11L76.742,266.197z"/>
			<path fill="#363795" d="M75.865,260.403c0,0-2.166,3.668-0.123,5.82c2.044,2.153,29.567,2.873,30.07-0.026
				c0.164-0.996,0.816-5.359-2.586-5.94C99.822,259.678,76.577,258.842,75.865,260.403z"/>
		</g>
	</g>
	<g>
		<path fill-rule="evenodd" clip-rule="evenodd" fill="#FFEFC4" d="M143.835,162.83c1.344,0,2.496-1.584,2.496-3.567
			c0-1.982-1.152-3.565-2.496-3.565s-2.401,1.583-2.401,3.565C141.435,161.246,142.491,162.83,143.835,162.83L143.835,162.83z"/>
		<path fill-rule="evenodd" clip-rule="evenodd" fill="#FFEFC4" d="M150.942,155.401L150.942,155.401
			c2.016,0,3.648,1.682,3.648,3.764v16.734c0,2.081-1.632,3.76-3.648,3.76l0,0c-2.017,0-3.651-1.68-3.651-3.76v-16.734
			C147.291,157.083,148.925,155.401,150.942,155.401L150.942,155.401z"/>
		<path fill-rule="evenodd" clip-rule="evenodd" fill="#FFEFC4" d="M145.372,150.946c2.402-1.389,11.333-1.982,12.58-0.098
			c2.016,2.869,2.306,22.575-6.721,20.892C143.258,172.135,142.972,152.331,145.372,150.946L145.372,150.946z"/>
		<path fill-rule="evenodd" clip-rule="evenodd" fill="#172949" d="M149.212,169.958c5.859-1.488,5.186-9.309,7.684-12.279
			c0.288-0.398,1.055-0.793,1.15,0.198c0.289,2.078,0.096-2.675,0-2.97c-0.096-2.181,1.058-2.576,0.578-3.861
			c-1.537-4.757-11.621-6.438-14.501-1.389C138.554,154.708,144.7,170.058,149.212,169.958L149.212,169.958z"/>
		<path fill-rule="evenodd" clip-rule="evenodd" fill="#FFEFC4" d="M156.127,163.421c1.344,0,2.498-1.583,2.498-3.566
			c0-1.978-1.153-3.563-2.498-3.563c-1.345,0-2.4,1.585-2.4,3.563C153.727,161.839,154.782,163.421,156.127,163.421L156.127,163.421
			z"/>
		<polygon fill-rule="evenodd" clip-rule="evenodd" fill="#0F1739" points="107.824,205.807 111.569,206.4 98.989,288.888 
			95.148,288.788 		"/>
		<path fill-rule="evenodd" clip-rule="evenodd" fill="#0B1C32" d="M156.319,281.458c0,0-1.439,2.972-1.152,4.754
			c0.288,1.784,3.553,2.675,7.778,1.982c4.32-0.791,7.777,0.1,8.739-1.188c0.959-1.189-1.249-3.863-9.698-5.348
			C157.375,282.549,156.319,281.458,156.319,281.458L156.319,281.458z"/>
		<path fill-rule="evenodd" clip-rule="evenodd" fill="#0B1C32" d="M172.068,283.541c0,0-1.44,2.967-1.056,4.753
			c0.288,1.878,3.457,2.773,7.779,1.978c4.319-0.69,7.777,0.1,8.738-1.09c0.96-1.284-1.248-3.86-9.7-5.347
			C173.221,284.63,172.068,283.541,172.068,283.541L172.068,283.541z"/>
		<path fill-rule="evenodd" clip-rule="evenodd" fill="#FFEFC4" d="M181.287,198.677c0,0,4.322-2.477,7.106-1.489
			c2.88,0.99,7.202,4.358,5.858,5.449c-1.249,1.088-8.643-0.297-10.467,0.195C182.055,203.331,181.287,198.677,181.287,198.677
			L181.287,198.677z"/>
		<path fill="#172949" d="M147.58,228.284c-1.92,4.952,15.557,3.864,22.952,13.764c6.242,8.319-4.225,29.411-8.257,40.203
			c-1.154,1.885-4.036,1.784-6.819,0.396c0,0,4.512-14.557,6.819-25.351c1.824-8.812-0.386-9.407-10.181-10.889
			c-25.254-3.965-16.612-23.571-16.516-23.571L147.58,228.284z"/>
		<path fill="#243C60" d="M162.658,226.105c-2.017,5.446,16.899,4.159,24.871,14.953c6.723,9.013-4.418,31.59-8.835,43.372
			c-1.152,1.289-3.553,2.078-7.489,0.792c0-0.099,4.896-15.941,7.393-27.528c2.017-9.607-0.481-10.2-11.042-11.884
			c-38.125-5.742-28.137-27.627-28.137-27.726L162.658,226.105z"/>
		<rect x="137.019" y="247.989" fill-rule="evenodd" clip-rule="evenodd" fill="#0F1739" width="4.895" height="37.53"/>
		<path fill-rule="evenodd" clip-rule="evenodd" fill="#0F1739" d="M104.558,202.539h165.077c1.343,0,2.399,1.088,2.399,2.373l0,0
			c0,1.389-1.056,2.478-2.399,2.478H104.558c-1.342,0-2.399-1.089-2.399-2.478l0,0C102.159,203.626,103.216,202.539,104.558,202.539
			L104.558,202.539z"/>
		<path fill-rule="evenodd" clip-rule="evenodd" fill="#172949" d="M104.558,202.539h91.903c1.247,0,2.304,1.088,2.304,2.373l0,0
			c0,1.389-1.058,2.478-2.304,2.478h-91.903c-1.342,0-2.399-1.089-2.399-2.478l0,0C102.159,203.626,103.216,202.539,104.558,202.539
			L104.558,202.539z"/>
		<linearGradient id="SVGID_26_" gradientUnits="userSpaceOnUse" x1="142.0596" y1="260.7764" x2="164.9007" y2="94.4462">
			<stop  offset="0" style="stop-color:#EC008C"/>
			<stop  offset="1" style="stop-color:#FFCB56"/>
		</linearGradient>
		<path fill-rule="evenodd" clip-rule="evenodd" fill="url(#SVGID_26_)" d="M163.233,228.187l2.976-38.028
			c0.577-8.22-3.456-14.854-9.505-15.054l-8.547-0.199c-6.05-0.196-12.484,7.033-13.061,15.252l-2.593,38.125L163.233,228.187z"/>
		<linearGradient id="SVGID_27_" gradientUnits="userSpaceOnUse" x1="132.8379" y1="251.1675" x2="121.8569" y2="166.8331">
			<stop  offset="0" style="stop-color:#DF068C"/>
			<stop  offset="1" style="stop-color:#666699"/>
		</linearGradient>
		<path fill-rule="evenodd" clip-rule="evenodd" fill="url(#SVGID_27_)" d="M109.937,229.572l-1.825-17.925
			c-0.959-10.101,4.227-18.418,11.62-18.418h12.771c7.396,0,14.213,8.318,15.271,18.418l1.824,18.221
			c0.096,1.385-0.865,2.182-3.362,2.28h-31.69C111.956,232.245,110.226,231.651,109.937,229.572L109.937,229.572z"/>
		<linearGradient id="SVGID_28_" gradientUnits="userSpaceOnUse" x1="125.4165" y1="244.9658" x2="226.7351" y2="243.2089">
			<stop  offset="0" style="stop-color:#DF068C"/>
			<stop  offset="1" style="stop-color:#666699"/>
		</linearGradient>
		<path fill-rule="evenodd" clip-rule="evenodd" fill="url(#SVGID_28_)" d="M117.62,240.465h43.693c2.209,0,4.129,1.878,4.129,4.257
			l0,0c0,2.28-1.92,4.258-4.129,4.258H117.62c-2.208,0-4.13-1.978-4.13-4.258l0,0C113.489,242.343,115.412,240.465,117.62,240.465
			L117.62,240.465z"/>
		<path opacity="0.8" fill-rule="evenodd" clip-rule="evenodd" fill="#C2529A" d="M117.62,240.465h28.809
			c2.305,0,4.129,1.878,4.129,4.257l0,0c0,2.28-1.824,4.258-4.129,4.258H117.62c-2.208,0-4.13-1.978-4.13-4.258l0,0
			C113.489,242.343,115.412,240.465,117.62,240.465L117.62,240.465z"/>
		<path fill="#0F1739" d="M125.494,242.243c-1.345-2.966-2.688-7.229-2.977-13.069c-0.577-6.338,6.626-6.139,7.204,0
			c0.575,9.806,4.032,13.069,4.032,13.069C133.657,245.217,127.127,246.008,125.494,242.243L125.494,242.243z"/>
		<path fill-rule="evenodd" clip-rule="evenodd" fill="#0F1739" d="M137.114,283.345c10.465,0,19.109,2.374,20.646,5.542h-41.197
			C118.1,285.719,126.743,283.345,137.114,283.345L137.114,283.345z"/>
		<linearGradient id="SVGID_29_" gradientUnits="userSpaceOnUse" x1="264.6465" y1="198.0244" x2="149.1293" y2="193.1929">
			<stop  offset="0" style="stop-color:#FFCB56"/>
			<stop  offset="1" style="stop-color:#EC008C"/>
		</linearGradient>
		<path fill="url(#SVGID_29_)" d="M164.099,182.927c0,0.101,1.824,18.914,5.474,19.413c5.856,0.693,12.098-4.06,12.098-4.06
			l2.977,4.553c0,0-7.489,8.42-16.708,7.23c-11.429-1.485-13.349-26.141-13.349-26.241
			C154.015,174.315,163.618,176.691,164.099,182.927L164.099,182.927z"/>
		<path opacity="0.8" fill-rule="evenodd" clip-rule="evenodd" fill="#C2529A" d="M144.7,231.454c0,0,0.191-15.846-2.113-23.076
			c-2.498-9.01-7.875-9.405-6.338-11.583c1.824-1.584,4.611,0.394,6.627,3.563c3.552,5.351,4.223,10.896,4.801,17.134
			c0.576,6.237,1.151,12.675,1.151,12.871C148.829,230.661,148.253,231.651,144.7,231.454L144.7,231.454z"/>
		<polygon fill-rule="evenodd" clip-rule="evenodd" fill="#0F1739" points="268.193,205.807 264.448,206.4 277.028,288.888 
			280.869,288.788 		"/>
		<polygon fill-rule="evenodd" clip-rule="evenodd" fill="#0F1739" points="210.095,205.807 213.84,206.4 201.261,288.888 
			197.419,288.788 		"/>
	</g>
	<g>
		<path fill-rule="evenodd" clip-rule="evenodd" fill="#172949" d="M300.881,128.049c1.576,0,2.871-1.335,2.871-2.963
			c0-1.652-1.295-2.984-2.871-2.984c-1.581,0-2.874,1.332-2.874,2.984C298.007,126.714,299.3,128.049,300.881,128.049
			L300.881,128.049z"/>
		
			<linearGradient id="SVGID_30_" gradientUnits="userSpaceOnUse" x1="285.8481" y1="165.5303" x2="393.4685" y2="73.7235" gradientTransform="matrix(0.9984 -0.0558 0.0558 0.9984 -35.0088 15.1175)">
			<stop  offset="0" style="stop-color:#EC008C"/>
			<stop  offset="1" style="stop-color:#FFCB56"/>
		</linearGradient>
		<path fill="url(#SVGID_30_)" d="M303.142,147.772L303.142,147.772l6.846-7.901c7.737-8.926,6.965-22.761-1.719-30.767l0,0
			c-8.682-8.008-22.099-7.257-29.814,1.666l-6.87,7.901l0,0c-13.178,4.293-26.355,8.581-39.532,12.874
			c21.021,19.388,42.068,38.796,63.089,58.182L303.142,147.772z"/>
		<path fill-rule="evenodd" clip-rule="evenodd" fill="#243C60" d="M296.429,120.407L296.429,120.407
			c2.435-2.512,6.402-2.512,8.835,0l43.893,45.262c2.413,2.487,2.413,6.58,0,9.088l0,0c-2.433,2.488-6.4,2.488-8.835,0
			l-43.893-45.263C294.018,126.985,294.018,122.894,296.429,120.407L296.429,120.407z"/>
		<linearGradient id="SVGID_31_" gradientUnits="userSpaceOnUse" x1="376.1377" y1="194.5259" x2="319.0391" y2="145.7024">
			<stop  offset="0.1293" style="stop-color:#394BA0"/>
			<stop  offset="0.3191" style="stop-color:#666CB2"/>
			<stop  offset="0.7548" style="stop-color:#E2E2F1"/>
			<stop  offset="0.8234" style="stop-color:#FFFFFF"/>
		</linearGradient>
		<path fill-rule="evenodd" clip-rule="evenodd" fill="url(#SVGID_31_)" d="M349.156,165.669l-28.979-29.882
			c-1.992,3.779-4.778,7.308-7.615,10.345l27.759,28.625c2.435,2.488,6.402,2.488,8.835,0
			C351.569,172.249,351.569,168.156,349.156,165.669z"/>
		<g>
			<path fill-rule="evenodd" clip-rule="evenodd" fill="#243C60" d="M346.174,163.813L346.174,163.813
				c3.269,0.497,5.526,3.665,5.044,7.034l-15.874,108.456c-0.482,3.368-3.552,5.697-6.816,5.199l0,0
				c-3.269-0.521-5.526-3.683-5.044-7.052l15.874-108.435C339.84,165.646,342.909,163.294,346.174,163.813L346.174,163.813z"/>
			<path fill-rule="evenodd" clip-rule="evenodd" fill="#172949" d="M345.342,173.016c1.6,0,2.896-1.333,2.896-2.982
				c0-1.629-1.296-2.963-2.896-2.963c-1.578,0-2.871,1.334-2.871,2.963C342.471,171.683,343.764,173.016,345.342,173.016
				L345.342,173.016z"/>
		</g>
		<g>
			<path fill-rule="evenodd" clip-rule="evenodd" fill="#172949" d="M317.257,277.403h25.39c1.799,0,3.332,1.354,3.639,3.141
				h-32.667C313.926,278.757,315.438,277.403,317.257,277.403L317.257,277.403z"/>
			<linearGradient id="SVGID_32_" gradientUnits="userSpaceOnUse" x1="334.9072" y1="330.3281" x2="322.1683" y2="223.585">
				<stop  offset="0" style="stop-color:#DF068C"/>
				<stop  offset="1" style="stop-color:#666699"/>
			</linearGradient>
			<path fill-rule="evenodd" clip-rule="evenodd" fill="url(#SVGID_32_)" d="M293.931,279.979h72.042
				c4.846,0,8.836,3.957,9.076,8.909h-90.196C285.093,283.936,289.083,279.979,293.931,279.979L293.931,279.979z"/>
		</g>
	</g>
	<g>
		<linearGradient id="SVGID_33_" gradientUnits="userSpaceOnUse" x1="187.0605" y1="518.4014" x2="213.4161" y2="270.6609">
			<stop  offset="0" style="stop-color:#39328F"/>
			<stop  offset="1" style="stop-color:#2B3087"/>
		</linearGradient>
		<path fill-rule="evenodd" clip-rule="evenodd" fill="url(#SVGID_33_)" d="M34.426,289.193h297.893c3.798,0,6.93,1.435,6.93,3.19
			l0,0c0,1.755-3.132,3.195-6.93,3.195h-71.731c-2.823,0.477-4.847,1.724-4.847,3.192s2.024,2.712,4.847,3.188h45.962h10.54
			c3.799,0,6.929,1.434,6.929,3.189l0,0c0,1.754-3.13,3.197-6.929,3.197h-10.54h-46.034c-2.649,0.508-4.514,1.722-4.514,3.13
			c0,1.312,1.617,2.444,3.976,3.014h14.252c3.815,0,6.93,1.436,6.93,3.191l0,0c0,1.753-3.115,3.189-6.93,3.189h-44.49
			c3.145,0.387,5.459,1.622,5.459,3.068l0,0c0,1.755-3.392,3.189-7.528,3.189h-35.128c-4.134,0-7.526-1.434-7.526-3.189l0,0
			c0-1.447,2.315-2.682,5.445-3.068h-72.355c-3.815,0-6.944-1.436-6.944-3.189l0,0c0-1.755,3.129-3.191,6.944-3.191h13.626
			c2.358-0.57,3.96-1.702,3.96-3.014c0-1.408-1.863-2.622-4.514-3.13h-9.855h-10.526c-3.815,0-6.931-1.442-6.931-3.197l0,0
			c0-1.755,3.116-3.189,6.931-3.189h10.526h44.46c2.826-0.476,4.834-1.721,4.834-3.188s-2.008-2.715-4.834-3.192H34.426
			c-3.814,0-6.931-1.439-6.931-3.195l0,0C27.496,290.627,30.612,289.193,34.426,289.193L34.426,289.193z M355.422,289.193h32.363
			c3.814,0,6.932,1.435,6.932,3.19l0,0c0,1.755-3.117,3.195-6.932,3.195h-32.363c-3.813,0-6.93-1.439-6.93-3.195l0,0
			C348.492,290.627,351.609,289.193,355.422,289.193L355.422,289.193z M298.776,314.487h32.347c3.816,0,6.946,1.436,6.946,3.191l0,0
			c0,1.753-3.13,3.189-6.946,3.189h-32.347c-3.814,0-6.932-1.436-6.932-3.189l0,0C291.845,315.923,294.962,314.487,298.776,314.487
			L298.776,314.487z M57.909,301.958h32.349c3.814,0,6.929,1.434,6.929,3.189l0,0c0,1.754-3.114,3.197-6.929,3.197H57.909
			c-3.814,0-6.944-1.442-6.944-3.197l0,0C50.964,303.392,54.095,301.958,57.909,301.958L57.909,301.958z"/>
	</g>
</g>
<g>
</g>
<g>
</g>
<g>
</g>
<g>
</g>
<g>
</g>
<g>
</g>
</svg>
